<svg width="55" height="49" viewBox="0 0 55 49" fill="none" xmlns="http://www.w3.org/2000/svg">
<g clip-path="url(#clip0_456_2223)">
<path d="M27.9844 0.65625C40.5844 0.65625 48.9844 3.95625 48.9844 8.15625V9.65625V12.6562C50.6437 12.6562 51.9844 13.9969 51.9844 15.6562V21.6562C51.9844 23.3156 50.6437 24.6562 48.9844 24.6562V39.6562C48.9844 41.3156 47.6437 42.6562 45.9844 42.6562V45.6562C45.9844 47.3156 44.6437 48.6562 42.9844 48.6562H39.9844C38.325 48.6562 36.9844 47.3156 36.9844 45.6562V42.6562H18.9844V45.6562C18.9844 47.3156 17.6438 48.6562 15.9844 48.6562H12.9844C11.325 48.6562 9.98438 47.3156 9.98438 45.6562V42.6562C8.325 42.6562 6.98438 41.3156 6.98438 39.6562V24.6562C5.325 24.6562 3.98438 23.3156 3.98438 21.6562V15.6562C3.98438 13.9969 5.325 12.6562 6.98438 12.6562V9.65625V8.15625C6.98438 3.95625 15.3844 0.65625 27.9844 0.65625ZM12.9844 15.6562V24.6562C12.9844 26.3156 14.325 27.6562 15.9844 27.6562H26.4844V12.6562H15.9844C14.325 12.6562 12.9844 13.9969 12.9844 15.6562ZM29.4844 27.6562H39.9844C41.6437 27.6562 42.9844 26.3156 42.9844 24.6562V15.6562C42.9844 13.9969 41.6437 12.6562 39.9844 12.6562H29.4844V27.6562ZM14.4844 38.1562C15.28 38.1562 16.0431 37.8402 16.6057 37.2776C17.1683 36.715 17.4844 35.9519 17.4844 35.1562C17.4844 34.3606 17.1683 33.5975 16.6057 33.0349C16.0431 32.4723 15.28 32.1562 14.4844 32.1562C13.6887 32.1562 12.9257 32.4723 12.3631 33.0349C11.8004 33.5975 11.4844 34.3606 11.4844 35.1562C11.4844 35.9519 11.8004 36.715 12.3631 37.2776C12.9257 37.8402 13.6887 38.1562 14.4844 38.1562ZM41.4844 38.1562C42.28 38.1562 43.0431 37.8402 43.6057 37.2776C44.1683 36.715 44.4844 35.9519 44.4844 35.1562C44.4844 34.3606 44.1683 33.5975 43.6057 33.0349C43.0431 32.4723 42.28 32.1562 41.4844 32.1562C40.6887 32.1562 39.9257 32.4723 39.3631 33.0349C38.8004 33.5975 38.4844 34.3606 38.4844 35.1562C38.4844 35.9519 38.8004 36.715 39.3631 37.2776C39.9257 37.8402 40.6887 38.1562 41.4844 38.1562ZM36.9844 8.15625C36.9844 7.33125 36.3094 6.65625 35.4844 6.65625H20.4844C19.6594 6.65625 18.9844 7.33125 18.9844 8.15625C18.9844 8.98125 19.6594 9.65625 20.4844 9.65625H35.4844C36.3094 9.65625 36.9844 8.98125 36.9844 8.15625Z" fill="#004CFF"/>
</g>
<defs>
<clipPath id="clip0_456_2223">
<path d="M0.984375 0.65625H54.9844V48.6562H0.984375V0.65625Z" fill="white"/>
</clipPath>
</defs>
</svg>
