<svg width="69" height="65" viewBox="0 0 69 65" fill="none" xmlns="http://www.w3.org/2000/svg">
<path d="M6.46749 33.0169C6.46749 18.198 19.0117 6.19067 34.4933 6.19067C42.9953 6.19067 50.6081 9.8148 55.7551 15.5412C56.9139 16.8438 58.9619 16.9857 60.3093 15.8765C61.6567 14.7673 61.8184 12.807 60.6596 11.5172C54.3404 4.46244 44.9625 0 34.4933 0C15.4411 0 0 14.7802 0 33.0169V38.1758C0 39.8912 1.44171 41.2712 3.23374 41.2712C5.02578 41.2712 6.46749 39.8912 6.46749 38.1758V33.0169ZM68.2455 26.1943C67.8817 24.5177 66.157 23.4472 64.4189 23.8083C62.6807 24.1694 61.5489 25.8074 61.9262 27.4711C62.3169 29.2638 62.5325 31.121 62.5325 33.0298V38.1887C62.5325 39.9041 63.9742 41.2841 65.7663 41.2841C67.5583 41.2841 69 39.9041 69 38.1887V33.0169C69 30.6825 68.744 28.3997 68.2589 26.1943H68.2455ZM34.4933 10.3178C31.9332 10.3178 29.454 10.7047 27.15 11.427C25.1019 12.0718 24.6303 14.4836 26.0316 16.0571C26.9883 17.1275 28.5647 17.45 29.993 17.0759C31.4212 16.7019 32.9303 16.5085 34.4933 16.5085C44.0193 16.5085 51.7399 23.8986 51.7399 33.0169V36.2283C51.7399 39.4784 51.5378 42.7157 51.147 45.94C50.918 47.823 52.4136 49.5254 54.4077 49.5254C55.9977 49.5254 57.3585 48.4162 57.5472 46.9073C57.9918 43.3734 58.2209 39.8138 58.2209 36.2412V33.0169C58.2209 20.4808 47.6034 10.3178 34.5067 10.3178H34.4933ZM20.3052 19.1782C19.0791 17.8111 16.8963 17.7079 15.7376 19.1266C12.6251 22.9571 10.7791 27.7807 10.7791 33.0169V36.2283C10.7791 39.3495 10.4288 42.4706 9.72818 45.5015C9.27006 47.5134 10.7926 49.5254 12.9484 49.5254C14.3632 49.5254 15.6298 48.6226 15.9397 47.2942C16.802 43.6701 17.2466 39.9685 17.2466 36.2283V33.0169C17.2466 29.5089 18.3919 26.2588 20.3322 23.589C21.3023 22.2477 21.4101 20.4163 20.3052 19.1782ZM34.4933 20.6356C27.3521 20.6356 21.5583 26.1814 21.5583 33.0169V36.2283C21.5583 40.8584 20.9385 45.4499 19.6989 49.9123C19.1869 51.7566 20.6016 53.6525 22.5958 53.6525C23.8758 53.6525 25.0076 52.8529 25.3445 51.6663C26.7592 46.6364 27.4868 41.4517 27.4868 36.2283V33.0169C27.4868 29.3154 30.6262 26.3104 34.4933 26.3104C38.3603 26.3104 41.4997 29.3154 41.4997 33.0169V36.2283C41.4997 40.91 41.0281 45.5659 40.0984 50.1445C39.7346 51.9372 41.1359 53.6525 43.0357 53.6525C44.4101 53.6525 45.5958 52.7497 45.8653 51.46C46.9028 46.4559 47.4282 41.3614 47.4282 36.2283V33.0169C47.4282 26.1814 41.6344 20.6356 34.4933 20.6356ZM37.727 33.0169C37.727 31.3016 36.2853 29.9216 34.4933 29.9216C32.7012 29.9216 31.2595 31.3016 31.2595 33.0169V36.2283C31.2595 43.9538 29.7774 51.6147 26.8805 58.8243L26.0855 60.7976C25.4388 62.3968 26.2742 64.1896 27.9449 64.7957C29.6157 65.4019 31.4886 64.6152 32.1218 63.0159L32.9168 61.0426C36.0967 53.1237 37.727 44.7147 37.727 36.2283V33.0169Z" fill="#004CFF"/>
</svg>
