<svg width="16" height="19" viewBox="0 0 16 19" fill="none" xmlns="http://www.w3.org/2000/svg">
<g clip-path="url(#clip0_155_3163)">
<path d="M7.87433 0.25C7.25206 0.25 6.74933 0.752734 6.74933 1.375V2.05C4.18292 2.57031 2.24933 4.84141 2.24933 7.5625V8.22344C2.24933 9.87578 1.64112 11.4719 0.544249 12.7094L0.284093 13.0012C-0.0112198 13.3316 -0.0815323 13.8063 0.0977645 14.2105C0.277061 14.6148 0.681358 14.875 1.12433 14.875H14.6243C15.0673 14.875 15.4681 14.6148 15.6509 14.2105C15.8337 13.8063 15.7599 13.3316 15.4646 13.0012L15.2044 12.7094C14.1075 11.4719 13.4993 9.8793 13.4993 8.22344V7.5625C13.4993 4.84141 11.5657 2.57031 8.99933 2.05V1.375C8.99933 0.752734 8.49659 0.25 7.87433 0.25ZM9.4669 17.5926C9.88878 17.1707 10.1243 16.5977 10.1243 16H7.87433H5.62433C5.62433 16.5977 5.85987 17.1707 6.28175 17.5926C6.70362 18.0145 7.27667 18.25 7.87433 18.25C8.47198 18.25 9.04503 18.0145 9.4669 17.5926Z" fill="#4B5563"/>
</g>
<defs>
<clipPath id="clip0_155_3163">
<path d="M0 0.25H15.75V18.25H0V0.25Z" fill="white"/>
</clipPath>
</defs>
</svg>
