<svg width="16" height="19" viewBox="0 0 16 19" fill="none" xmlns="http://www.w3.org/2000/svg">
<g clip-path="url(#clip0_456_2226)">
<path d="M7.98438 9.90625C6.7909 9.90625 5.64631 9.43214 4.80239 8.58823C3.95848 7.74432 3.48438 6.59972 3.48438 5.40625C3.48438 4.21278 3.95848 3.06818 4.80239 2.22427C5.64631 1.38036 6.7909 0.90625 7.98438 0.90625C9.17785 0.90625 10.3224 1.38036 11.1664 2.22427C12.0103 3.06818 12.4844 4.21278 12.4844 5.40625C12.4844 6.59972 12.0103 7.74432 11.1664 8.58823C10.3224 9.43214 9.17785 9.90625 7.98438 9.90625ZM7.46055 13.5344L6.80664 12.4445C6.58164 12.0684 6.85234 11.5938 7.28828 11.5938H7.98438H8.67695C9.11289 11.5938 9.38359 12.0719 9.15859 12.4445L8.50469 13.5344L9.67891 17.8902L10.9445 12.7258C11.0148 12.441 11.2891 12.2547 11.5738 12.3285C14.0383 12.9473 15.8594 15.1762 15.8594 17.827C15.8594 18.4246 15.3742 18.9062 14.7801 18.9062H10.1465C10.0727 18.9062 10.0059 18.8922 9.94258 18.8676L9.95312 18.9062H6.01562L6.02617 18.8676C5.96289 18.8922 5.89258 18.9062 5.82227 18.9062H1.18867C0.594531 18.9062 0.109375 18.4211 0.109375 17.827C0.109375 15.1727 1.93398 12.9437 4.39492 12.3285C4.67969 12.2582 4.95391 12.4445 5.02422 12.7258L6.28984 17.8902L7.46406 13.5344H7.46055Z" fill="#004CFF"/>
</g>
<defs>
<clipPath id="clip0_456_2226">
<path d="M0.109375 0.90625H15.8594V18.9062H0.109375V0.90625Z" fill="white"/>
</clipPath>
</defs>
</svg>
