<svg width="17" height="19" viewBox="0 0 17 19" fill="none" xmlns="http://www.w3.org/2000/svg">
<g clip-path="url(#clip0_155_3150)">
<path d="M8.73438 9.25C9.92785 9.25 11.0724 8.77589 11.9164 7.93198C12.7603 7.08807 13.2344 5.94347 13.2344 4.75C13.2344 3.55653 12.7603 2.41193 11.9164 1.56802C11.0724 0.724106 9.92785 0.25 8.73438 0.25C7.5409 0.25 6.39631 0.724106 5.55239 1.56802C4.70848 2.41193 4.23438 3.55653 4.23438 4.75C4.23438 5.94347 4.70848 7.08807 5.55239 7.93198C6.39631 8.77589 7.5409 9.25 8.73438 9.25ZM7.12773 10.9375C3.66484 10.9375 0.859375 13.743 0.859375 17.2059C0.859375 17.7824 1.32695 18.25 1.90352 18.25H15.5652C16.1418 18.25 16.6094 17.7824 16.6094 17.2059C16.6094 13.743 13.8039 10.9375 10.341 10.9375H7.12773Z" fill="#9CA3AF"/>
</g>
<defs>
<clipPath id="clip0_155_3150">
<path d="M0.859375 0.25H16.6094V18.25H0.859375V0.25Z" fill="white"/>
</clipPath>
</defs>
</svg>
