<svg width="28" height="31" viewBox="0 0 28 31" fill="none" xmlns="http://www.w3.org/2000/svg">
<g clip-path="url(#clip0_255_3201)">
<path d="M0.875 5.4375C0.875 3.88477 2.13477 2.625 3.6875 2.625H9.3125C10.8652 2.625 12.125 3.88477 12.125 5.4375V11.0625C12.125 12.6152 10.8652 13.875 9.3125 13.875H3.6875C2.13477 13.875 0.875 12.6152 0.875 11.0625V5.4375ZM4.625 6.375V10.125H8.375V6.375H4.625ZM0.875 20.4375C0.875 18.8848 2.13477 17.625 3.6875 17.625H9.3125C10.8652 17.625 12.125 18.8848 12.125 20.4375V26.0625C12.125 27.6152 10.8652 28.875 9.3125 28.875H3.6875C2.13477 28.875 0.875 27.6152 0.875 26.0625V20.4375ZM4.625 21.375V25.125H8.375V21.375H4.625ZM18.6875 2.625H24.3125C25.8652 2.625 27.125 3.88477 27.125 5.4375V11.0625C27.125 12.6152 25.8652 13.875 24.3125 13.875H18.6875C17.1348 13.875 15.875 12.6152 15.875 11.0625V5.4375C15.875 3.88477 17.1348 2.625 18.6875 2.625ZM23.375 6.375H19.625V10.125H23.375V6.375ZM15.875 18.5625C15.875 18.0469 16.2969 17.625 16.8125 17.625H20.5625C21.0781 17.625 21.5 18.0469 21.5 18.5625C21.5 19.0781 21.9219 19.5 22.4375 19.5H24.3125C24.8281 19.5 25.25 19.0781 25.25 18.5625C25.25 18.0469 25.6719 17.625 26.1875 17.625C26.7031 17.625 27.125 18.0469 27.125 18.5625V24.1875C27.125 24.7031 26.7031 25.125 26.1875 25.125H22.4375C21.9219 25.125 21.5 24.7031 21.5 24.1875C21.5 23.6719 21.0781 23.25 20.5625 23.25C20.0469 23.25 19.625 23.6719 19.625 24.1875V27.9375C19.625 28.4531 19.2031 28.875 18.6875 28.875H16.8125C16.2969 28.875 15.875 28.4531 15.875 27.9375V18.5625ZM22.4375 28.875C22.1889 28.875 21.9504 28.7762 21.7746 28.6004C21.5988 28.4246 21.5 28.1861 21.5 27.9375C21.5 27.6889 21.5988 27.4504 21.7746 27.2746C21.9504 27.0988 22.1889 27 22.4375 27C22.6861 27 22.9246 27.0988 23.1004 27.2746C23.2762 27.4504 23.375 27.6889 23.375 27.9375C23.375 28.1861 23.2762 28.4246 23.1004 28.6004C22.9246 28.7762 22.6861 28.875 22.4375 28.875ZM26.1875 28.875C25.9389 28.875 25.7004 28.7762 25.5246 28.6004C25.3488 28.4246 25.25 28.1861 25.25 27.9375C25.25 27.6889 25.3488 27.4504 25.5246 27.2746C25.7004 27.0988 25.9389 27 26.1875 27C26.4361 27 26.6746 27.0988 26.8504 27.2746C27.0262 27.4504 27.125 27.6889 27.125 27.9375C27.125 28.1861 27.0262 28.4246 26.8504 28.6004C26.6746 28.7762 26.4361 28.875 26.1875 28.875Z" fill="#9CA3AF"/>
</g>
<defs>
<clipPath id="clip0_255_3201">
<path d="M0.875 0.75H27.125V30.75H0.875V0.75Z" fill="white"/>
</clipPath>
</defs>
</svg>
