<svg width="22" height="25" viewBox="0 0 22 25" fill="none" xmlns="http://www.w3.org/2000/svg">
<g clip-path="url(#clip0_245_2726)">
<path d="M0.5 3.79297C0.5 2.55078 1.50781 1.54297 2.75 1.54297H7.25C8.49219 1.54297 9.5 2.55078 9.5 3.79297V8.29297C9.5 9.53516 8.49219 10.543 7.25 10.543H2.75C1.50781 10.543 0.5 9.53516 0.5 8.29297V3.79297ZM3.5 4.54297V7.54297H6.5V4.54297H3.5ZM0.5 15.793C0.5 14.5508 1.50781 13.543 2.75 13.543H7.25C8.49219 13.543 9.5 14.5508 9.5 15.793V20.293C9.5 21.5352 8.49219 22.543 7.25 22.543H2.75C1.50781 22.543 0.5 21.5352 0.5 20.293V15.793ZM3.5 16.543V19.543H6.5V16.543H3.5ZM14.75 1.54297H19.25C20.4922 1.54297 21.5 2.55078 21.5 3.79297V8.29297C21.5 9.53516 20.4922 10.543 19.25 10.543H14.75C13.5078 10.543 12.5 9.53516 12.5 8.29297V3.79297C12.5 2.55078 13.5078 1.54297 14.75 1.54297ZM18.5 4.54297H15.5V7.54297H18.5V4.54297ZM12.5 14.293C12.5 13.8805 12.8375 13.543 13.25 13.543H16.25C16.6625 13.543 17 13.8805 17 14.293C17 14.7055 17.3375 15.043 17.75 15.043H19.25C19.6625 15.043 20 14.7055 20 14.293C20 13.8805 20.3375 13.543 20.75 13.543C21.1625 13.543 21.5 13.8805 21.5 14.293V18.793C21.5 19.2055 21.1625 19.543 20.75 19.543H17.75C17.3375 19.543 17 19.2055 17 18.793C17 18.3805 16.6625 18.043 16.25 18.043C15.8375 18.043 15.5 18.3805 15.5 18.793V21.793C15.5 22.2055 15.1625 22.543 14.75 22.543H13.25C12.8375 22.543 12.5 22.2055 12.5 21.793V14.293ZM17.75 22.543C17.5511 22.543 17.3603 22.464 17.2197 22.3233C17.079 22.1826 17 21.9919 17 21.793C17 21.5941 17.079 21.4033 17.2197 21.2626C17.3603 21.122 17.5511 21.043 17.75 21.043C17.9489 21.043 18.1397 21.122 18.2803 21.2626C18.421 21.4033 18.5 21.5941 18.5 21.793C18.5 21.9919 18.421 22.1826 18.2803 22.3233C18.1397 22.464 17.9489 22.543 17.75 22.543ZM20.75 22.543C20.5511 22.543 20.3603 22.464 20.2197 22.3233C20.079 22.1826 20 21.9919 20 21.793C20 21.5941 20.079 21.4033 20.2197 21.2626C20.3603 21.122 20.5511 21.043 20.75 21.043C20.9489 21.043 21.1397 21.122 21.2803 21.2626C21.421 21.4033 21.5 21.5941 21.5 21.793C21.5 21.9919 21.421 22.1826 21.2803 22.3233C21.1397 22.464 20.9489 22.543 20.75 22.543Z" fill="#4B5563"/>
</g>
<defs>
<clipPath id="clip0_245_2726">
<path d="M0.5 0.0429688H21.5V24.043H0.5V0.0429688Z" fill="white"/>
</clipPath>
</defs>
</svg>
