<svg width="27" height="18" viewBox="0 0 27 18" fill="none" xmlns="http://www.w3.org/2000/svg">
<path d="M3 0C1.34531 0 0 1.34531 0 3V6C0 6.4125 0.346875 6.73594 0.735937 6.87188C1.61719 7.17656 2.25 8.01562 2.25 9C2.25 9.98438 1.61719 10.8234 0.735937 11.1281C0.346875 11.2641 0 11.5875 0 12V15C0 16.6547 1.34531 18 3 18H24C25.6547 18 27 16.6547 27 15V12C27 11.5875 26.6531 11.2641 26.2641 11.1281C25.3828 10.8234 24.75 9.98438 24.75 9C24.75 8.01562 25.3828 7.17656 26.2641 6.87188C26.6531 6.73594 27 6.4125 27 6V3C27 1.34531 25.6547 0 24 0H3ZM6 5.25V12.75C6 13.1625 6.3375 13.5 6.75 13.5H20.25C20.6625 13.5 21 13.1625 21 12.75V5.25C21 4.8375 20.6625 4.5 20.25 4.5H6.75C6.3375 4.5 6 4.8375 6 5.25ZM4.5 4.5C4.5 3.67031 5.17031 3 6 3H21C21.8297 3 22.5 3.67031 22.5 4.5V13.5C22.5 14.3297 21.8297 15 21 15H6C5.17031 15 4.5 14.3297 4.5 13.5V4.5Z" fill="#9CA3AF"/>
</svg>
